<svg width="100" height="100" viewBox="0 0 100 100" fill="none" xmlns="http://www.w3.org/2000/svg">
<g clip-path="url(#clip0_185_27)">
<rect x="4" y="4" width="88" height="88" fill="white"/>
<path d="M32.2847 78.8802L16.9814 79.833L15.3334 78.4039L24.9862 31.8382L16.746 30.5281L17.57 26.1217L41.5844 19.3333L43.8211 21.2388L41.7021 32.1955C45.783 28.2257 49.8639 25.1292 53.9448 22.9061C58.0257 20.6037 61.9496 19.4524 65.7166 19.4524C68.2279 19.4524 70.3468 20.2861 72.0733 21.9534C73.7998 23.6207 74.6631 26.1217 74.6631 29.4563C74.6631 31.0442 74.5061 32.7115 74.1922 34.4582C73.9568 36.205 73.6037 37.9914 73.1328 39.8175L67.6 62.3262C67.2861 63.4378 67.0115 64.4302 66.776 65.3035C66.6191 66.0975 66.5406 66.8121 66.5406 67.4472C66.5406 69.0352 67.1684 69.8291 68.4241 69.8291C70.4645 69.8291 73.3682 67.3678 77.1352 62.4453L80.6667 64.8272C79.1756 67.4472 77.2921 69.9879 75.0163 72.4492C72.7404 74.8311 70.1506 76.816 67.2469 78.4039C64.4217 79.9124 61.3218 80.6667 57.9472 80.6667C55.122 80.6667 52.9246 80.0315 51.355 78.7612C49.8639 77.4114 49.1184 75.5456 49.1184 73.1637C49.1184 71.3376 49.3146 69.4718 49.707 67.5663C50.1778 65.6608 50.6487 63.8347 51.1196 62.088L55.4751 44.2239C55.946 42.3978 56.2991 40.7305 56.5346 39.222C56.8485 37.6341 57.0054 36.3637 57.0054 35.411C57.0054 34.0613 56.6915 33.1085 56.0637 32.5527C55.5144 31.997 54.8081 31.7191 53.9448 31.7191C52.2183 31.7191 50.1778 32.3146 47.8235 33.5055C45.5476 34.617 43.0363 36.4431 40.2895 38.9838L37.2289 53.3942C36.3656 57.6021 35.5416 61.8498 34.7568 66.1372C33.972 70.3452 33.148 74.5929 32.2847 78.8802Z" fill="black"/>
<path fill-rule="evenodd" clip-rule="evenodd" d="M92.3077 0H0V92.3077L7.69231 100H100V7.69231L92.3077 0ZM92.3077 3.84615H3.84615V92.3077H92.3077V3.84615Z" fill="black"/>
</g>
<defs>
<clipPath id="clip0_185_27">
<rect width="100" height="100" fill="white"/>
</clipPath>
</defs>
</svg>
