<svg width="18" height="18" viewBox="0 0 18 18" fill="none" xmlns="http://www.w3.org/2000/svg">
  <g clip-path="url(#clip0_295_2)">
    <path d="M14.25 13.5C14.9462 13.5 15.6139 13.2234 16.1062 12.7312C16.5984 12.2389 16.875 11.5712 16.875 10.875C16.875 10.1788 16.5984 9.51113 16.1062 9.01885C15.6139 8.52656 14.9462 8.25 14.25 8.25H13.5C13.6094 7.76247 13.6111 7.26031 13.5049 6.7722C13.3987 6.28409 13.1867 5.81958 12.8811 5.4052C12.5754 4.99082 12.1821 4.63468 11.7235 4.35711C11.2649 4.07955 10.75 3.88599 10.2083 3.7875C9.66664 3.68901 9.10868 3.68751 8.56634 3.78309C8.02399 3.87866 7.50787 4.06944 7.04745 4.34454C6.11758 4.90011 5.47102 5.76539 5.25001 6.75C4.45047 6.71798 3.66416 6.9528 3.02571 7.41428C2.38726 7.87575 1.93638 8.53517 1.75026 9.27962C1.56415 10.0241 1.65438 10.8073 2.00551 11.4951C2.35664 12.1829 2.94682 12.7326 3.67501 13.05" stroke="black" stroke-width="1.5" stroke-linecap="round" stroke-linejoin="round"/>
    <path d="M9 9.75V16.5" stroke="black" stroke-width="1.5" stroke-linecap="round" stroke-linejoin="round"/>
    <path d="M6.75 14.25L9 16.5L11.25 14.25" stroke="black" stroke-width="1.5" stroke-linecap="round" stroke-linejoin="round"/>
  </g>
  <defs>
    <clipPath id="clip0_295_2">
      <rect width="18" height="18" fill="white"/>
    </clipPath>
  </defs>
</svg>
