<svg width="199" height="19" viewBox="0 0 199 19" fill="white" xmlns="http://www.w3.org/2000/svg">
  <path d="M132.472 13.7425L130.24 13.8798L130 13.6738L131.408 6.96137L130.206 6.77253L130.326 6.13734L133.828 5.1588L134.155 5.43348L133.845 7.01288C134.441 6.44063 135.036 5.99428 135.631 5.67382C136.226 5.34192 136.798 5.17597 137.348 5.17597C137.714 5.17597 138.023 5.29614 138.275 5.53648C138.526 5.77682 138.652 6.13734 138.652 6.61803C138.652 6.84692 138.629 7.08727 138.584 7.33906C138.549 7.59084 138.498 7.84835 138.429 8.11159L137.622 11.3562C137.577 11.5165 137.536 11.6595 137.502 11.7854C137.479 11.8999 137.468 12.0029 137.468 12.0944C137.468 12.3233 137.559 12.4378 137.742 12.4378C138.04 12.4378 138.464 12.083 139.013 11.3734L139.528 11.7167C139.31 12.0944 139.036 12.4607 138.704 12.8155C138.372 13.1588 137.994 13.4449 137.571 13.6738C137.159 13.8913 136.707 14 136.215 14C135.803 14 135.482 13.9084 135.253 13.7253C135.036 13.5308 134.927 13.2618 134.927 12.9185C134.927 12.6552 134.956 12.3863 135.013 12.1116C135.082 11.8369 135.15 11.5737 135.219 11.3219L135.854 8.74678C135.923 8.48355 135.974 8.2432 136.009 8.02575C136.054 7.79685 136.077 7.61373 136.077 7.47639C136.077 7.28183 136.031 7.14449 135.94 7.06438C135.86 6.98426 135.757 6.94421 135.631 6.94421C135.379 6.94421 135.082 7.03004 134.738 7.20172C134.406 7.36195 134.04 7.62518 133.639 7.99142L133.193 10.0687C133.067 10.6753 132.947 11.2876 132.833 11.9056C132.718 12.5122 132.598 13.1245 132.472 13.7425Z" fill="white"/>
  <path d="M143.421 14C142.803 14 142.243 13.8856 141.739 13.6567C141.235 13.4163 140.835 13.0558 140.537 12.5751C140.24 12.083 140.091 11.4649 140.091 10.721C140.091 10 140.217 9.3133 140.469 8.66094C140.72 7.99714 141.069 7.402 141.516 6.87554C141.974 6.34907 142.506 5.93705 143.112 5.63948C143.719 5.33047 144.383 5.17597 145.104 5.17597C145.733 5.17597 146.294 5.29614 146.786 5.53648C147.278 5.76538 147.667 6.12017 147.954 6.60086C148.251 7.08155 148.4 7.69957 148.4 8.45493C148.4 9.17597 148.274 9.86838 148.022 10.5322C147.77 11.1845 147.421 11.774 146.975 12.3004C146.529 12.8269 146.002 13.2446 145.396 13.5536C144.789 13.8512 144.131 14 143.421 14ZM143.627 13.073C143.959 13.073 144.263 12.9242 144.537 12.6266C144.823 12.3176 145.069 11.9113 145.275 11.4077C145.481 10.9041 145.636 10.3491 145.739 9.74249C145.853 9.13591 145.911 8.53505 145.911 7.93991C145.911 7.24177 145.813 6.76681 145.619 6.51502C145.436 6.25179 145.19 6.12017 144.881 6.12017C144.537 6.12017 144.223 6.27468 143.936 6.58369C143.662 6.88126 143.421 7.28183 143.215 7.78541C143.009 8.27754 142.849 8.82117 142.735 9.41631C142.632 10.0114 142.58 10.6009 142.58 11.1845C142.58 11.917 142.677 12.4149 142.872 12.6781C143.078 12.9413 143.33 13.073 143.627 13.073Z" fill="white"/>
  <path d="M149.828 11.1159L150.858 6.42918H149.571L149.708 5.60515L151.219 5.41631L152.352 3.08154H153.931L153.433 5.45064H155.219L155.03 6.51502L153.227 6.46352L152.215 11.3391C152.146 11.6595 152.112 11.9056 152.112 12.0773C152.112 12.3176 152.215 12.4378 152.421 12.4378C152.684 12.4378 153.096 12.083 153.657 11.3734L154.172 11.7167C153.954 12.1059 153.685 12.4778 153.365 12.8326C153.044 13.176 152.678 13.4564 152.266 13.6738C151.854 13.8913 151.402 14 150.91 14C150.521 14 150.2 13.9027 149.948 13.7082C149.708 13.5136 149.588 13.2217 149.588 12.8326C149.588 12.5808 149.611 12.3062 149.657 12.0086C149.714 11.6996 149.771 11.402 149.828 11.1159Z" fill="white"/>
  <path d="M159.955 6.12017C159.714 6.12017 159.457 6.22318 159.182 6.42918C158.919 6.62375 158.667 6.89843 158.427 7.25322C158.187 7.60801 157.981 8.01431 157.809 8.4721C157.649 8.9299 157.557 9.41059 157.534 9.91416C158.312 9.63948 158.925 9.33619 159.371 9.00429C159.817 8.66094 160.132 8.31187 160.315 7.95708C160.498 7.60229 160.59 7.27039 160.59 6.96137C160.59 6.67525 160.527 6.46352 160.401 6.32618C160.275 6.18884 160.126 6.12017 159.955 6.12017ZM158.118 14C157.225 14 156.498 13.7139 155.938 13.1416C155.388 12.5694 155.114 11.7797 155.114 10.7725C155.114 10.0286 155.239 9.32475 155.491 8.66094C155.755 7.98569 156.115 7.39056 156.573 6.87554C157.031 6.34907 157.569 5.93705 158.187 5.63948C158.805 5.33047 159.474 5.17597 160.195 5.17597C160.973 5.17597 161.563 5.34764 161.963 5.69099C162.375 6.03433 162.581 6.48069 162.581 7.03004C162.581 7.75107 162.169 8.42632 161.345 9.05579C160.533 9.67382 159.274 10.1946 157.569 10.618C157.626 11.1674 157.803 11.5737 158.101 11.8369C158.398 12.1001 158.782 12.2318 159.251 12.2318C159.755 12.2318 160.201 12.1059 160.59 11.8541C160.979 11.6023 161.305 11.3104 161.569 10.9785L162.049 11.3219C161.82 11.7568 161.511 12.1803 161.122 12.5923C160.745 13.0043 160.304 13.3419 159.8 13.6051C159.297 13.8684 158.736 14 158.118 14Z" fill="white"/>
  <path d="M170.49 14C169.826 14 169.18 13.8741 168.55 13.6223C167.921 13.3591 167.354 12.9757 166.851 12.4721C166.347 11.9685 165.947 11.3448 165.649 10.6009C165.363 9.84549 165.22 8.97568 165.22 7.99142C165.22 7.05293 165.369 6.21173 165.666 5.46781C165.964 4.72389 166.359 4.09442 166.851 3.5794C167.354 3.06438 167.921 2.67525 168.55 2.41202C169.18 2.13734 169.826 2 170.49 2C171.154 2 171.795 2.13162 172.413 2.39485C173.042 2.64664 173.603 3.02432 174.095 3.5279C174.599 4.03147 175 4.65522 175.297 5.39914C175.595 6.14306 175.743 7.00715 175.743 7.99142C175.743 8.9299 175.595 9.7711 175.297 10.515C175.011 11.2589 174.616 11.8941 174.113 12.4206C173.62 12.9356 173.06 13.3305 172.43 13.6051C171.801 13.8684 171.154 14 170.49 14ZM170.49 13.1416C171.085 13.1416 171.595 12.9986 172.018 12.7124C172.453 12.4149 172.802 12.0258 173.065 11.5451C173.34 11.0529 173.54 10.5036 173.666 9.897C173.792 9.27897 173.855 8.64378 173.855 7.99142C173.855 7.3505 173.792 6.72675 173.666 6.12017C173.54 5.50215 173.34 4.94707 173.065 4.45494C172.802 3.9628 172.453 3.57368 172.018 3.28755C171.595 3.00143 171.085 2.85837 170.49 2.85837C169.895 2.85837 169.38 3.00143 168.945 3.28755C168.522 3.57368 168.173 3.9628 167.898 4.45494C167.623 4.94707 167.417 5.50215 167.28 6.12017C167.154 6.72675 167.091 7.3505 167.091 7.99142C167.091 8.64378 167.154 9.27897 167.28 9.897C167.417 10.5036 167.623 11.0529 167.898 11.5451C168.173 12.0258 168.522 12.4149 168.945 12.7124C169.38 12.9986 169.895 13.1416 170.49 13.1416Z" fill="white"/>
  <path d="M180.585 14C179.944 14 179.326 13.9142 178.731 13.7425C178.136 13.5594 177.638 13.3419 177.238 13.0901L177.341 10.6867H178.405L178.748 12.7124C179.012 12.8612 179.28 12.97 179.555 13.0386C179.841 13.1073 180.167 13.1416 180.534 13.1416C181.346 13.1416 181.993 12.9642 182.474 12.6094C182.954 12.2432 183.195 11.7282 183.195 11.0644C183.195 10.515 183.023 10.0916 182.68 9.79399C182.348 9.48498 181.816 9.18741 181.083 8.90129L180.414 8.62661C179.532 8.28326 178.817 7.84263 178.268 7.30472C177.73 6.75536 177.461 6.04578 177.461 5.17597C177.461 4.51216 177.627 3.94564 177.959 3.47639C178.302 3.00715 178.765 2.64664 179.349 2.39485C179.933 2.13162 180.591 2 181.323 2C181.896 2 182.416 2.08011 182.886 2.24034C183.355 2.40057 183.773 2.61803 184.139 2.8927L184.036 5.14163H182.989L182.628 3.20172C182.205 2.97282 181.735 2.85837 181.22 2.85837C180.568 2.85837 180.019 3.02432 179.572 3.35622C179.126 3.67668 178.903 4.15737 178.903 4.79828C178.903 5.32475 179.069 5.75966 179.401 6.103C179.744 6.44635 180.225 6.7382 180.843 6.97854L181.529 7.23605C182.651 7.67096 183.452 8.16309 183.933 8.71245C184.414 9.25036 184.654 9.92561 184.654 10.7382C184.654 11.4134 184.476 11.9971 184.122 12.4893C183.778 12.97 183.303 13.3419 182.697 13.6051C182.09 13.8684 181.386 14 180.585 14Z" fill="white"/>
  <path d="M40.4007 14.3432H37.699L33.5742 10.0947L29.4494 14.3432H26.727L32.213 8.69223L26.727 3H29.4494L40.4007 14.3432ZM40.4007 3L35.5128 8.07351L34.1723 6.67108L37.699 3H40.4007Z" fill="white"/>
  <path d="M48.3144 14.3432H46.252V5.04178H40.7866V3H53.7591V5.04178H48.3144V14.3432Z" fill="white"/>
  <path d="M68.8222 14.3432H66.0174L62.8 11.2702H58.6133V9.22845H64.3262C64.9037 9.22845 65.3918 9.02221 65.7905 8.60973C66.203 8.1835 66.4092 7.68853 66.4092 7.1248C66.4092 6.54733 66.203 6.05923 65.7905 5.6605C65.3918 5.24802 64.9037 5.04178 64.3262 5.04178H57.5409V14.3432H55.4785V3H64.3262C65.0962 3 65.7905 3.18562 66.4092 3.55685C67.0279 3.92808 67.5229 4.42993 67.8941 5.0624C68.2654 5.68112 68.451 6.36859 68.451 7.1248C68.451 7.74352 68.3204 8.32787 68.0591 8.87785C67.8117 9.41407 67.461 9.88155 67.0073 10.2803C66.5673 10.6653 66.0586 10.9402 65.4811 11.1052L68.8222 14.3432Z" fill="white"/>
  <path d="M84.2706 8.65098C84.2706 9.69593 84.0506 10.6515 83.6106 11.5177C83.1844 12.3702 82.5794 13.0576 81.7957 13.5801C81.012 14.0888 80.0977 14.3432 79.0527 14.3432H75.4641C74.4192 14.3432 73.498 14.0888 72.7005 13.5801C71.9168 13.0576 71.3049 12.3702 70.865 11.5177C70.4387 10.6515 70.2256 9.69593 70.2256 8.65098C70.2256 7.60603 70.4387 6.65733 70.865 5.80487C71.3049 4.95241 71.9168 4.27181 72.7005 3.76309C73.498 3.25436 74.4192 3 75.4641 3H79.0527C80.0977 3 81.012 3.25436 81.7957 3.76309C82.5794 4.27181 83.1844 4.95241 83.6106 5.80487C84.0506 6.65733 84.2706 7.60603 84.2706 8.65098ZM82.2082 8.65098C82.2082 7.99101 82.0844 7.38604 81.8369 6.83607C81.5895 6.28609 81.2251 5.85299 80.7439 5.53675C80.2764 5.20677 79.7127 5.04178 79.0527 5.04178H75.4641C74.8042 5.04178 74.2336 5.20677 73.7523 5.53675C73.2849 5.85299 72.9205 6.28609 72.6593 6.83607C72.4118 7.38604 72.288 7.99101 72.288 8.65098C72.288 9.31095 72.4118 9.91592 72.6593 10.4659C72.9205 11.0159 73.2849 11.4558 73.7523 11.7858C74.2336 12.1158 74.8042 12.2808 75.4641 12.2808H79.0527C79.7127 12.2808 80.2764 12.1158 80.7439 11.7858C81.2251 11.4558 81.5895 11.0159 81.8369 10.4659C82.0844 9.91592 82.2082 9.31095 82.2082 8.65098Z" fill="white"/>
  <path d="M99.528 7.1248C99.528 7.86727 99.3424 8.55474 98.9712 9.18721C98.5999 9.81968 98.0981 10.3284 97.4656 10.7134C96.8469 11.0846 96.1594 11.2702 95.4032 11.2702H89.6697V9.22845H95.4032C95.9807 9.22845 96.4688 9.02221 96.8675 8.60973C97.28 8.1835 97.4862 7.68853 97.4862 7.1248C97.4862 6.54733 97.28 6.05923 96.8675 5.6605C96.4688 5.24802 95.9807 5.04178 95.4032 5.04178H88.5973V14.3432H86.5555V3H95.4032C96.1594 3 96.8469 3.18562 97.4656 3.55685C98.0981 3.92808 98.5999 4.42993 98.9712 5.0624C99.3424 5.68112 99.528 6.36859 99.528 7.1248Z" fill="white"/>
  <path d="M114 11.0021C114 11.6208 113.814 12.1846 113.443 12.6933C113.072 13.1883 112.57 13.587 111.938 13.8895C111.319 14.192 110.631 14.3432 109.875 14.3432H101.007V12.2808H109.875C110.439 12.2808 110.92 12.1571 111.319 11.9096C111.731 11.6621 111.938 11.3596 111.938 11.0021V10.4865H105.111C104.355 10.4865 103.667 10.3009 103.049 9.92967C102.43 9.55844 101.935 9.06346 101.564 8.44474C101.192 7.81227 101.007 7.11793 101.007 6.36172V3H103.049V6.36172C103.049 6.93919 103.248 7.42729 103.647 7.82602C104.059 8.22475 104.547 8.42412 105.111 8.42412H111.938V3H114V11.0021Z" fill="white"/>
  <rect x="75.0938" y="7.72796" width="4.28046" height="1.94566" fill="white"/>
  <rect x="14" y="7.72796" width="4.66959" height="1.94566" fill="white"/>
  <rect x="21.0043" y="7.72796" width="4.66959" height="1.94566" fill="white"/>
  <rect x="14" y="12.3976" width="11.674" height="1.94566" fill="white"/>
  <rect x="14" y="3.05837" width="11.674" height="1.94566" fill="white"/>
  <line x1="125.466" y1="0.181223" x2="118.466" y2="18.1812" stroke="white"/>
  <path d="M6.44 15.54C5.61867 15.54 4.96533 15.3347 4.48 14.924C3.99467 14.5227 3.78467 13.9533 3.85 13.216L4.06 10.92C4.10667 10.4253 4.03667 10.0707 3.85 9.856C3.66333 9.632 3.26667 9.52 2.66 9.52H1.05V8.4H2.66C3.26667 8.4 3.66333 8.29267 3.85 8.078C4.03667 7.854 4.10667 7.49467 4.06 7L3.85 4.704C3.78467 3.96667 3.99467 3.39733 4.48 2.996C4.96533 2.58533 5.61867 2.38 6.44 2.38H7.07V3.5H6.44C6.00133 3.5 5.66067 3.60267 5.418 3.808C5.17533 4.004 5.07267 4.30267 5.11 4.704L5.32 7C5.36667 7.55067 5.236 7.994 4.928 8.33C4.62 8.65667 4.116 8.85267 3.416 8.918C4.116 8.98333 4.62 9.198 4.928 9.562C5.236 9.926 5.36667 10.3787 5.32 10.92L5.11 13.216C5.07267 13.6173 5.17533 13.916 5.418 14.112C5.66067 14.3173 6.00133 14.42 6.44 14.42H7.07V15.54H6.44Z" fill="white"/>
  <path d="M191.33 15.54V14.42H191.96C192.399 14.42 192.744 14.3173 192.996 14.112C193.257 13.916 193.355 13.6173 193.29 13.216L192.94 10.92C192.856 10.388 192.949 9.94 193.22 9.576C193.491 9.20267 193.864 8.974 194.34 8.89C193.864 8.81533 193.491 8.61467 193.22 8.288C192.949 7.96133 192.856 7.532 192.94 7L193.29 4.704C193.355 4.30267 193.257 4.004 192.996 3.808C192.744 3.60267 192.399 3.5 191.96 3.5H191.33V2.38H191.96C192.511 2.38 192.991 2.47333 193.402 2.66C193.822 2.83733 194.135 3.09867 194.34 3.444C194.555 3.78933 194.625 4.20933 194.55 4.704L194.2 7C194.125 7.49467 194.186 7.854 194.382 8.078C194.587 8.29267 194.993 8.4 195.6 8.4H197.35V9.52H195.6C195.003 9.52 194.601 9.632 194.396 9.856C194.191 10.0707 194.125 10.4253 194.2 10.92L194.55 13.216C194.625 13.7013 194.555 14.1167 194.34 14.462C194.135 14.8167 193.822 15.0827 193.402 15.26C192.991 15.4467 192.511 15.54 191.96 15.54H191.33Z" fill="white"/>
</svg>
